<?xml version="1.0" standalone="no"?>
<!DOCTYPE svg PUBLIC "-//W3C//DTD SVG 20010904//EN"
 "http://www.w3.org/TR/2001/REC-SVG-20010904/DTD/svg10.dtd">
<svg version="1.0" xmlns="http://www.w3.org/2000/svg"
 width="1024.000000pt" height="1024.000000pt" viewBox="0 0 1024.000000 1024.000000"
 preserveAspectRatio="xMidYMid meet">

<g transform="translate(0.000000,1024.000000) scale(0.100000,-0.100000)"
fill="#000000" stroke="none">
<path d="M3434 7100 c-165 -24 -316 -111 -460 -263 -97 -102 -153 -204 -192
-345 l-26 -97 -6 -1330 c-3 -731 -2 -1378 2 -1437 19 -273 81 -419 253 -594
125 -128 250 -201 400 -235 85 -20 3112 -21 3223 -1 151 26 293 98 414 211 81
74 128 140 189 261 73 147 90 223 92 405 l2 150 -221 3 -221 2 -7 -110 c-4
-60 -14 -134 -22 -162 -32 -108 -111 -199 -219 -252 -120 -59 -63 -57 -1638
-53 -1356 2 -1446 4 -1502 21 -148 45 -226 121 -277 272 l-23 69 0 1350 0
1350 23 68 c41 119 154 217 283 246 29 7 562 11 1520 11 1428 0 1478 -1 1552
-19 166 -43 248 -116 291 -260 13 -44 16 -103 16 -298 l0 -243 225 0 225 0 0
229 c0 430 -27 549 -165 736 -108 146 -252 247 -431 302 -55 16 -157 17 -1654
19 -877 1 -1618 -2 -1646 -6z"/>
<path d="M4880 6296 c-198 -42 -376 -169 -479 -343 -132 -223 -145 -480 -35
-712 94 -200 243 -331 458 -403 217 -73 496 -18 669 131 194 168 286 381 274
631 -16 321 -217 583 -522 680 -89 28 -269 36 -365 16z"/>
<path d="M6223 5553 c-18 -2 -33 -8 -33 -12 0 -4 29 -54 65 -110 36 -56 97
-160 136 -229 40 -70 110 -191 157 -269 l84 -142 -65 -113 c-86 -150 -207
-348 -295 -482 -40 -60 -72 -113 -72 -118 0 -6 69 -9 179 -6 221 4 205 -7 343
235 69 122 135 223 146 223 8 0 77 -111 185 -300 37 -64 79 -128 94 -142 l28
-27 183 6 c105 4 182 10 182 16 0 5 -11 22 -25 39 -31 37 -132 209 -258 438
-53 97 -108 191 -122 210 -14 19 -25 39 -25 46 0 7 15 34 33 61 110 168 189
297 269 438 50 88 99 172 109 187 11 14 19 30 19 36 0 16 -331 22 -356 7 -17
-11 -180 -263 -269 -417 -15 -27 -31 -50 -35 -53 -4 -3 -29 32 -55 77 -103
179 -201 340 -225 368 l-25 28 -160 5 c-88 2 -175 2 -192 0z"/>
<path d="M4550 4600 c-342 -73 -621 -277 -769 -560 -68 -130 -96 -249 -116
-502 l-7 -78 1381 0 c1309 0 1381 1 1381 18 0 45 -30 281 -40 313 l-10 37
-133 4 c-196 6 -248 36 -277 159 -16 66 6 142 61 205 75 87 76 90 43 125 -33
36 -214 158 -285 194 -75 38 -187 73 -290 90 -73 12 -178 15 -474 14 -329 0
-392 -3 -465 -19z"/>
</g>
</svg>
